<svg width="187" height="33" viewBox="0 0 187 33" fill="none" xmlns="http://www.w3.org/2000/svg">
<path d="M13.07 2.894H19.454V32H13.07V20.492H7.274V32H0.89V2.894H7.274V14.864H13.07V2.894ZM22.8235 24.944V13.562C22.8235 11.434 23.4815 9.782 24.7975 8.606C26.1135 7.402 28.1015 6.8 30.7615 6.8C35.8855 6.8 38.4475 9.054 38.4475 13.562V22.088H28.9135V24.44C28.9135 25.28 29.1375 25.882 29.5855 26.246C30.0615 26.582 31.0835 26.75 32.6515 26.75C34.2475 26.75 35.9835 26.47 37.8595 25.91V31.454C35.8995 31.986 33.7995 32.252 31.5595 32.252C25.7355 32.252 22.8235 29.816 22.8235 24.944ZM28.9135 17.258H32.6095V13.646C32.6095 12.582 31.9935 12.05 30.7615 12.05C29.5295 12.05 28.9135 12.582 28.9135 13.646V17.258ZM41.3724 0.625998H47.7144V32H41.3724V0.625998ZM51.5033 0.625998H57.8453V32H51.5033V0.625998ZM70.9581 13.772C70.9581 12.708 70.3701 12.176 69.1941 12.176C68.0181 12.176 67.4301 12.708 67.4301 13.772V25.448C67.4301 26.512 68.0181 27.044 69.1941 27.044C70.3701 27.044 70.9581 26.512 70.9581 25.448V13.772ZM61.2141 13.562C61.2141 11.434 61.8721 9.782 63.1881 8.606C64.5321 7.402 66.5341 6.8 69.1941 6.8C71.8541 6.8 73.8421 7.402 75.1581 8.606C76.5021 9.782 77.1741 11.434 77.1741 13.562V25.658C77.1741 27.786 76.5021 29.452 75.1581 30.656C73.8421 31.832 71.8541 32.42 69.1941 32.42C66.5341 32.42 64.5321 31.832 63.1881 30.656C61.8721 29.452 61.2141 27.786 61.2141 25.658V13.562ZM103.539 2.894V8.354H98.2893V32H91.9053V8.354H86.6553V2.894H103.539ZM105.644 0.625998H111.986V7.64C113.106 7.248 114.296 7.052 115.556 7.052C119.532 7.052 121.52 8.83 121.52 12.386V32H115.094V13.94C115.094 13.268 114.688 12.932 113.876 12.932C113.092 12.932 112.462 13.072 111.986 13.352V32H105.644V0.625998ZM124.665 24.944V13.562C124.665 11.434 125.323 9.782 126.639 8.606C127.955 7.402 129.943 6.8 132.603 6.8C137.727 6.8 140.289 9.054 140.289 13.562V22.088H130.755V24.44C130.755 25.28 130.979 25.882 131.427 26.246C131.903 26.582 132.925 26.75 134.493 26.75C136.089 26.75 137.825 26.47 139.701 25.91V31.454C137.741 31.986 135.641 32.252 133.401 32.252C127.577 32.252 124.665 29.816 124.665 24.944ZM130.755 17.258H134.451V13.646C134.451 12.582 133.835 12.05 132.603 12.05C131.371 12.05 130.755 12.582 130.755 13.646V17.258ZM153.924 7.094H154.638V12.932H153.672C152.104 12.932 150.732 13.212 149.556 13.772V32H143.214V7.22H149.178V8.9C150.606 8.032 151.6 7.514 152.16 7.346C152.748 7.178 153.336 7.094 153.924 7.094ZM156.329 24.944V13.562C156.329 11.434 156.987 9.782 158.303 8.606C159.619 7.402 161.607 6.8 164.267 6.8C169.391 6.8 171.953 9.054 171.953 13.562V22.088H162.419V24.44C162.419 25.28 162.643 25.882 163.091 26.246C163.567 26.582 164.589 26.75 166.157 26.75C167.753 26.75 169.489 26.47 171.365 25.91V31.454C169.405 31.986 167.305 32.252 165.065 32.252C159.241 32.252 156.329 29.816 156.329 24.944ZM162.419 17.258H166.115V13.646C166.115 12.582 165.499 12.05 164.267 12.05C163.035 12.05 162.419 12.582 162.419 13.646V17.258ZM180.853 32.65C177.257 32.65 175.458 30.96 175.458 27.58C175.458 24.1567 177.257 22.445 180.853 22.445C184.493 22.445 186.313 24.1567 186.313 27.58C186.313 30.96 184.493 32.65 180.853 32.65Z" fill="white"/>
</svg>
